<?xml version="1.0" encoding="utf-8"?>
<!-- Generator: Adobe Illustrator 18.1.1, SVG Export Plug-In . SVG Version: 6.00 Build 0)  -->
<svg version="1.1" id="Layer_1" xmlns="http://www.w3.org/2000/svg" xmlns:xlink="http://www.w3.org/1999/xlink" x="0px" y="0px"
	 viewBox="0 0 1000 1000" enable-background="new 0 0 1000 1000" xml:space="preserve">
<path d="M509.8,677l0.1-80c0-5.5-4.5-10-10-10c0,0,0,0,0,0c-5.5,0-10,4.5-10,10l-0.1,80c0,5.5,4.5,10,10,10c0,0,0,0,0,0
	C505.4,687,509.8,682.5,509.8,677z M510,403l0.1-80c0-5.5-4.5-10-10-10c0,0,0,0,0,0c-5.5,0-10,4.5-10,10l-0.1,80c0,5.5,4.5,10,10,10
	c0,0,0,0,0,0C505.6,413,510,408.5,510,403z M658.2,580l-69.3-40c-4.8-2.8-10.9-1.1-13.7,3.7c0,0,0,0,0,0c-2.8,4.8-1.1,10.9,3.7,13.7
	l69.3,40.1c4.8,2.8,10.9,1.1,13.7-3.7c0,0,0,0,0,0C664.6,588.8,663,582.7,658.2,580z M421,442.8l-69.3-40
	c-4.8-2.8-10.9-1.1-13.7,3.6c0,0,0,0,0,0c-2.8,4.8-1.1,10.9,3.7,13.7l69.3,40.1c4.8,2.8,10.9,1.1,13.7-3.7c0,0,0,0,0,0
	C427.4,451.7,425.8,445.5,421,442.8z M648.3,402.9l-69.3,40c-4.8,2.8-6.4,8.9-3.7,13.7c0,0,0,0,0,0c2.8,4.8,8.9,6.4,13.7,3.7
	l69.3-39.9c4.8-2.8,6.4-8.9,3.7-13.7c0,0,0,0,0,0C659.2,401.8,653.1,400.2,648.3,402.9z M410.9,539.8l-69.3,40
	c-4.8,2.8-6.4,8.9-3.7,13.7c0,0,0,0,0,0c2.8,4.8,8.9,6.4,13.7,3.7l69.3-39.9c4.8-2.8,6.4-8.9,3.7-13.7c0,0,0,0,0,0
	C421.8,538.7,415.7,537,410.9,539.8z M548.8,538.8l-39.4,22.8c-5.8,3.3-13,3.3-18.8,0l-39.4-22.8c-5.7-3.3-9.2-9.3-9.2-15.8V477
	c0-6.5,3.5-12.5,9.2-15.8l39.4-22.8c5.8-3.3,13-3.3,18.8,0l39.4,22.8c5.7,3.3,9.2,9.3,9.2,15.8V523
	C558,529.5,554.5,535.5,548.8,538.8z M472.3,481.8c-2.3,1-4.3,2.3-6,4s-3.1,3.8-4.2,6.3c-1,2.5-1.6,5.2-1.6,8.1
	c0,5.3,1.9,9.8,5.6,13.7c3.7,3.8,8.2,5.7,13.5,5.7c5.3,0,9.7-1.9,13.4-5.8c3.6-3.9,5.4-8.6,5.4-14.1c0-5.5-1.9-10.1-5.7-13.9
	c-3.8-3.7-8.3-5.6-13.4-5.6C476.9,480.3,474.6,480.8,472.3,481.8z M472.8,492.5c2-1.9,4.2-2.9,6.7-2.9c2.5,0,4.7,1,6.7,2.9
	c2,1.9,3,4.5,3,7.6c0,3.2-1,5.7-3,7.6c-2,1.9-4.2,2.8-6.7,2.8c-2.5,0-4.7-1-6.7-2.9c-2-1.9-3-4.4-3-7.5
	C469.8,496.9,470.8,494.4,472.8,492.5z M514.3,481c-1.8,0-2.9,0.2-3.6,0.9c-0.7,0.6-0.8,1.8-0.8,3.5v29c0,1.2-0.1,2.1,0.1,2.7
	c0.4,1.3,1.7,2,4.2,2c2.2,0,3.5-0.5,4-1.4c0.3-0.5,0.5-1,0.6-1.4c0.1-0.4,0.1-1,0.1-1.8V505h10.1c1.2,0,2.1-0.3,2.7-0.5
	c1.3-0.5,2-2,2-4.4c0-2.2-0.5-3.7-1.4-4.2c-0.5-0.3-1-0.6-1.4-0.7c-0.4-0.1-1-0.3-1.9-0.3H519v-5h15.8c0.8,0,1.5,0,1.9-0.1
	c0.4-0.1,0.9-0.2,1.4-0.5s0.9-0.7,1.1-1.4c0.2-0.7,0.3-1.5,0.3-2.7s-0.1-2-0.3-2.7c-0.2-0.7-0.6-1.1-1.1-1.4c-0.5-0.3-1-0.3-1.4-0.4
	c-0.4-0.1-1,0-1.8,0H514.3z"/>
<g>
	<path d="M337.2,728.8c1.1-0.3,2.2-0.2,3.4,0.4c1.2,0.6,2.5,1.6,3.9,2.9c1.4,1.3,2.4,2.5,3,3.6c0.6,1,0.9,1.9,1,2.7
		c0.1,0.8,0,1.6-0.4,2.4c-0.5,1-1.6,2.4-3.3,4.1l-38.6,39.9c-1.1,1.1-1.9,1.9-2.5,2.4c-0.6,0.5-1.4,0.9-2.5,1.2
		c-1.9,0.6-4.4-0.5-7.5-3.5c-3.4-3.2-4.5-6-3.3-8.4c0.5-1.1,1.6-2.5,3.2-4.2l14.1-14.6l-19-18.4l-14.2,14.7
		c-1.1,1.1-1.9,1.9-2.5,2.4c-0.6,0.5-1.4,0.9-2.5,1.2c-1.9,0.6-4.4-0.5-7.5-3.5c-3.4-3.2-4.5-6-3.3-8.4c0.5-1.1,1.6-2.5,3.2-4.2
		l38.6-39.9c1.1-1.1,1.9-1.9,2.5-2.4c0.6-0.5,1.4-0.9,2.5-1.2c1.9-0.6,4.4,0.5,7.5,3.5c3.4,3.2,4.5,6.1,3.4,8.4
		c-0.5,1-1.6,2.4-3.3,4.1l-14.2,14.7l19,18.4l14.3-14.7c1.1-1.1,1.9-1.9,2.5-2.4C335.3,729.5,336.1,729.1,337.2,728.8z"/>
	<path d="M419.5,778.3l5.8,61.7c0.3,2.5,0.2,4.3-0.2,5.4c-0.8,2.2-3.4,3.6-7.7,4.1c-2.5,0.3-4.4,0.2-5.6-0.3s-2.1-1.1-2.7-2
		c-0.6-0.9-0.9-1.7-1-2.4c-0.1-0.8-0.2-1.9-0.4-3.4l-1.1-11.9l-25.9-9.7l-8.7,8.3c-1.1,1-1.9,1.7-2.5,2.2c-0.6,0.4-1.3,0.8-2.3,1.1
		c-1,0.3-2.1,0.2-3.3-0.2s-2.7-1.6-4.4-3.5c-3-3.1-4-5.8-3.2-8c0.4-1.1,1.5-2.5,3.4-4.2l44.9-42.9c1.2-1.2,2.7-1.9,4.4-2.3
		c1.7-0.3,3.4-0.2,4.9,0.4C417.2,771.9,419.1,774.5,419.5,778.3z M403.6,798l-11,10.5l12.5,4.7L403.6,798z"/>
	<path d="M525.6,839.6l1.8-1.4c2.2-1.4,3.8-2.1,4.7-2.2c2.1-0.1,4.4,1.7,6.9,5.4c1.5,2.3,2.3,4.1,2.4,5.5c0,1.4-0.4,2.6-1.2,3.5
		c-0.9,1-1.9,1.8-3.1,2.6c-1.2,0.8-2.3,1.5-3.4,2.2c-1.1,0.7-3.3,1.6-6.7,2.8c-3.4,1.2-6.6,1.8-9.8,1.9c-3.2,0.1-6.4-0.2-9.6-0.9
		c-3.3-0.7-6.6-2-10.1-3.9c-3.5-1.9-6.7-4.2-9.5-6.9c-2.8-2.7-5.2-6.3-7.1-10.7c-1.9-4.4-2.9-9.2-3.1-14.4
		c-0.2-5.2,0.5-9.9,2.1-14.2c1.6-4.3,3.7-7.9,6.3-10.7c2.6-2.8,5.6-5.3,9-7.2c6.4-3.8,12.9-5.8,19.5-6c3.1-0.1,6.3,0.3,9.6,1.1
		c3.3,0.9,5.7,1.8,7.4,2.7l2.4,1.3c1.2,0.7,2.2,1.3,2.9,1.7c1.8,1.3,2.7,2.9,2.8,4.7c0.1,1.8-0.6,3.6-1.9,5.6
		c-2.5,3.7-4.8,5.6-6.8,5.6c-1.2,0-2.9-0.6-5.2-2c-2.9-2.2-6.6-3.2-11.3-3c-4.3,0.1-8.5,1.8-12.7,4.9c-2,1.5-3.6,3.6-4.8,6.4
		c-1.2,2.7-1.8,5.7-1.7,9.1c0.1,3.4,0.9,6.4,2.3,9c1.4,2.6,3.2,4.7,5.3,6.1c4.2,2.8,8.4,4.1,12.8,4c2.1-0.1,4-0.4,5.8-1
		C523.5,840.7,524.8,840.1,525.6,839.6z"/>
	<path d="M617.8,797c13.3,4.8,22.9,8.6,28.8,11.4c3,1.4,4.9,2.8,5.6,4.4s0.3,3.9-1.2,7.1c-1.5,3.2-3,5.1-4.6,5.8s-4,0.2-7.3-1.3
		l-30.3-14l7.9,17.8c0.6,1.5,1.1,2.5,1.3,3.3c0.2,0.7,0.3,1.6,0.2,2.8c-0.1,2-2.1,3.9-6,5.6c-4.3,1.9-7.3,1.8-9-0.1
		c-0.8-0.8-1.7-2.3-2.6-4.4l-22.6-50.8c-0.6-1.4-1-2.5-1.3-3.2c-0.2-0.7-0.3-1.7-0.2-2.8c0.1-2,2.1-3.9,6-5.6c4.3-1.9,7.3-1.9,9.1,0
		c0.8,0.9,1.6,2.4,2.6,4.5l7.8,17.5c4.1-13,7.4-23.6,9.9-31.9c1-3.4,2.3-5.5,3.9-6.2c1.6-0.7,4.1-0.5,7.4,0.5c3.4,1,5.4,2.3,6.1,3.9
		c0.7,1.6,0.6,3.8-0.3,6.7c-1.7,5.7-4.7,13.7-9,24.1L617.8,797z"/>
	<path d="M701.5,775.6c-2.7-0.3-4.7-1-5.9-2.2c-1.2-1.2-1.8-3.8-1.7-7.8c0-2.3,0.7-4.1,2.1-5.4c1.3-1.3,4.3-2,9.1-2
		c1.5,0.1,3.2,0,5.1-0.5c2-0.5,3.5-1.3,4.5-2.3c4.4-4.4,4.8-8.4,1.2-12c-1.1-1.1-2.6-1.4-4.5-0.9c-1.9,0.5-4,1.4-6.1,2.9
		c-2.1,1.5-4.6,2.9-7.4,4.2c-2.8,1.3-5.6,2.4-8.4,3.2s-5.8,0.7-9.2-0.2s-6.5-2.9-9.5-5.9c-4.1-4.1-6.2-9.3-6.2-15.5
		c0-6.2,2.7-11.9,8-17.3c2.8-2.8,5.8-5,8.8-6.6c3.1-1.6,5.4-2.5,7.1-2.6l3.1-0.4c2.8-0.1,4.7,0.3,5.7,1.3c0.9,0.9,1.7,2.8,2.2,5.6
		c0.8,4,0.3,6.8-1.4,8.5c-1,1-2.7,1.7-5.1,2.3c-0.2,0-0.7,0.1-1.5,0.1c-0.8,0-1.4,0.1-2,0.2c-1.6,0.4-3.2,1.3-4.7,2.9
		c-1.5,1.5-2.4,3.2-2.7,4.9c-0.3,1.7,0.2,3.3,1.5,4.6c1.3,1.3,2.9,1.7,4.9,1.3c2-0.4,4-1.4,6.1-2.9c2.1-1.5,4.5-3,7.2-4.6
		c2.7-1.5,5.4-2.8,8-3.7c2.6-0.9,5.6-1,8.9-0.1c3.3,0.9,6.5,2.9,9.5,5.9c3.1,3.1,5.1,6.4,6.3,9.9c1.1,3.6,1.3,7,0.6,10.2
		c-1.3,6.3-4.2,11.6-8.5,16c-2.2,2.2-4.6,4-7.1,5.5c-2.5,1.4-4.8,2.4-6.8,2.8c-4,1-7.2,1.3-9.6,0.8L701.5,775.6z"/>
</g>
<g>
	<path d="M257.1,317.4c-2.5-0.3-4.2-1-5.3-2.1c-1.1-1.1-1.5-3.5-1.4-7.1c0.1-2.1,0.7-3.7,2-4.9c1.2-1.2,3.9-1.7,8.2-1.6
		c1.3,0.2,2.9,0,4.6-0.4c1.8-0.4,3.1-1.1,4.1-2c4-3.9,4.5-7.4,1.3-10.7c-1-1-2.3-1.3-4.1-0.9c-1.7,0.4-3.6,1.2-5.5,2.5
		c-1.9,1.3-4.2,2.5-6.7,3.6c-2.6,1.2-5.1,2.1-7.6,2.7c-2.5,0.7-5.3,0.5-8.3-0.4c-3-0.9-5.8-2.8-8.5-5.5c-3.7-3.8-5.4-8.5-5.3-14.1
		c0.1-5.6,2.6-10.7,7.5-15.4c2.6-2.5,5.3-4.4,8.1-5.8c2.8-1.4,4.9-2.1,6.4-2.2l2.8-0.3c2.5,0,4.2,0.4,5.1,1.3
		c0.8,0.9,1.5,2.6,1.9,5.1c0.6,3.6,0.1,6.1-1.4,7.6c-0.9,0.9-2.5,1.5-4.6,1.9c-0.2,0-0.7,0.1-1.4,0.1c-0.7,0-1.3,0-1.8,0.1
		c-1.4,0.3-2.9,1.1-4.3,2.5c-1.4,1.3-2.3,2.8-2.5,4.4c-0.3,1.6,0.1,2.9,1.3,4.1c1.1,1.2,2.6,1.6,4.4,1.3c1.8-0.3,3.7-1.1,5.6-2.5
		c1.9-1.3,4.1-2.6,6.5-4c2.5-1.3,4.9-2.4,7.3-3.2c2.4-0.8,5.1-0.8,8,0.1c3,0.9,5.8,2.7,8.5,5.5c2.7,2.8,4.5,5.8,5.4,9.1
		c0.9,3.2,1,6.3,0.3,9.2c-1.3,5.7-4,10.4-8,14.2c-2,2-4.2,3.5-6.5,4.8c-2.3,1.2-4.4,2-6.2,2.4c-3.6,0.8-6.5,1-8.7,0.6L257.1,317.4z"
		/>
	<path d="M334.6,194.2c0.1-1.1,0.5-2.1,1.4-3c0.8-0.8,2-1.7,3.5-2.5s2.8-1.3,3.8-1.5c1-0.2,1.9-0.3,2.6-0.1c0.7,0.1,1.3,0.5,1.9,1.1
		c0.8,0.7,1.7,2,2.7,3.9l12.6,24.1c3.7,7,4.8,14.5,3.5,22.6c-0.7,3.8-2.3,7.5-4.8,10.9c-2.5,3.4-5.7,6.2-9.8,8.3s-8.2,3.2-12.4,3.3
		c-4.2,0-8.1-0.8-11.6-2.4c-7.3-3.4-12.8-8.6-16.5-15.7l-12.6-24c-0.7-1.3-1.1-2.2-1.4-2.9c-0.2-0.7-0.4-1.5-0.4-2.5
		c0-1,0.4-2,1.3-2.8c0.8-0.8,2.1-1.7,3.8-2.6c1.7-0.9,3.1-1.4,4.3-1.7c1.2-0.2,2.2,0,3,0.6c1.3,0.9,2.5,2.4,3.6,4.5l12.6,23.9
		c1.7,3.2,4.1,5.9,7.2,8c1.6,1.1,3.4,1.6,5.5,1.7c2.1,0.1,4.2-0.5,6.4-1.6c3.9-2,6-5,6.4-8.9s-0.4-7.7-2.4-11.5L336.1,199
		C335,196.9,334.5,195.3,334.6,194.2z"/>
	<path d="M471.8,156.6c0.6,0.8,1,1.6,1.2,2.3c0.2,0.7,0.4,1.7,0.6,3.1l8.1,49.3c0.7,4.1-0.1,6.7-2.2,7.7c-1.1,0.5-2.5,1-4.2,1.2
		c-1.7,0.3-3.1,0.4-4.2,0.2c-1.1-0.1-1.9-0.4-2.5-0.7c-0.6-0.3-1.1-0.9-1.5-1.6c-0.5-1-0.9-2.5-1.2-4.5l-4.9-29.8
		c-1.2,2.1-2.9,5.3-5,9.8c-2.2,4.5-3.6,7.3-4.2,8.4c-0.6,1.1-1,1.9-1.3,2.3c-0.2,0.4-0.9,1.1-1.9,2c-1,0.9-2.2,1.4-3.6,1.6
		c-1.3,0.2-2.6,0.1-3.8-0.3c-1.2-0.4-2.1-0.9-2.7-1.4l-0.9-0.9c-1.4-1.3-4.3-4.1-8.6-8.3c-4.3-4.3-6.6-6.5-7-6.8l4.9,29.9
		c0.2,1.4,0.3,2.4,0.4,3.1c0,0.7-0.1,1.5-0.5,2.4c-0.6,1.7-2.8,2.9-6.5,3.5c-3.6,0.6-6,0.2-7.1-1.3c-0.6-0.8-1-1.5-1.2-2.2
		s-0.4-1.8-0.7-3.2l-8.1-49.3c-0.2-1.4-0.3-2.4-0.4-3.1c0-0.7,0.1-1.5,0.5-2.5c0.6-1.7,2.8-2.8,6.5-3.4c1.6-0.3,3-0.3,4.2-0.1
		c1.2,0.2,2,0.5,2.5,0.8l0.6,0.4l24.5,23.2c7.9-15,13.2-24.9,15.8-29.7c0.7-1.8,3-3,6.8-3.6C468.2,154.7,470.7,155.1,471.8,156.6z"
		/>
	<path d="M600.6,168.8c0.3,1,0.5,1.8,0.4,2.5c0,0.7-0.2,1.8-0.4,3.1l-8.6,49.2c-0.7,4.1-2.3,6.3-4.6,6.6c-1.2,0.2-2.6,0.1-4.3-0.2
		c-1.7-0.3-3-0.7-4-1.2c-1-0.5-1.7-1-2.1-1.5c-0.5-0.5-0.8-1.2-0.9-2c-0.1-1.1,0-2.6,0.4-4.7l5.2-29.7c-1.8,1.6-4.5,4.1-8,7.6
		c-3.5,3.5-5.8,5.7-6.7,6.5c-0.9,0.9-1.6,1.5-2,1.8c-0.4,0.3-1.2,0.7-2.5,1.2c-1.3,0.5-2.6,0.6-3.9,0.4c-1.3-0.2-2.5-0.8-3.5-1.6
		c-1-0.8-1.7-1.6-2-2.2l-0.5-1.1c-0.9-1.7-2.7-5.2-5.3-10.7c-2.6-5.4-4.1-8.3-4.3-8.8l-5.2,29.9c-0.2,1.4-0.5,2.4-0.7,3
		c-0.2,0.7-0.6,1.4-1.2,2.1c-1.2,1.4-3.6,1.8-7.3,1.2c-3.6-0.6-5.7-1.8-6.3-3.6c-0.3-0.9-0.5-1.7-0.4-2.5c0-0.7,0.2-1.8,0.4-3.2
		l8.6-49.2c0.2-1.4,0.5-2.4,0.7-3c0.2-0.7,0.6-1.4,1.3-2.2c1.2-1.4,3.6-1.7,7.3-1.1c1.6,0.3,2.9,0.7,4,1.3c1.1,0.6,1.8,1.1,2.1,1.6
		l0.4,0.6l15.5,29.9c12.4-11.5,20.6-19.1,24.7-22.8c1.3-1.4,3.8-1.8,7.6-1.1C597.9,165.9,600,167.1,600.6,168.8z"/>
	<path d="M647.4,238.5l24.6,12.9c1.2,0.6,2.1,1.2,2.7,1.6c0.6,0.4,1.1,1,1.7,1.9c1,1.5,0.7,3.9-1.1,7.3c-2,3.7-4.1,5.4-6.4,5
		c-1.1-0.2-2.5-0.7-4.4-1.7l-31.6-16.5c-3.7-2-5.4-4.1-4.9-6.5c0.1-1,0.7-2.5,1.7-4.3l23.2-44.3c1.4-2.7,2.9-4.3,4.4-4.7
		c1.5-0.5,3.7,0.1,6.5,1.5l31.4,16.5c1.2,0.6,2.1,1.2,2.7,1.6c0.6,0.4,1.1,1,1.7,1.9c1,1.5,0.7,3.9-1.1,7.3c-2,3.7-4.1,5.4-6.4,5
		c-1.1-0.2-2.5-0.7-4.4-1.7l-24.5-12.8l-4.2,8.1l15.8,8.3c1.2,0.6,2.1,1.2,2.7,1.6c0.6,0.4,1.1,1,1.7,1.9c1,1.5,0.7,3.9-1.1,7.3
		c-2,3.7-4.1,5.4-6.5,4.9c-1.1-0.2-2.5-0.7-4.4-1.7l-15.6-8.2L647.4,238.5z"/>
	<path d="M745.8,317.4c-0.8,2.2-1.6,3.6-2.2,4.3c-1.6,1.7-4.2,1.8-8,0.4c-2-0.7-3.4-1.5-4.2-2.3c-0.9-0.8-1.4-1.7-1.5-2.6
		c-0.2-0.9-0.2-1.7,0-2.4c0.3-1.2,2.4-6.8,6.1-16.7l-2.2-1.8l-8.2-7.8l-7,7.4c-0.9,1-1.7,1.7-2.2,2.2c-0.5,0.4-1.3,0.8-2.3,1.1
		c-1.7,0.6-4-0.4-6.8-3.1c-3.1-2.9-4.1-5.4-3.1-7.5c0.4-1,1.4-2.2,2.8-3.8l34.3-36.3c0.9-1,1.7-1.7,2.2-2.2c0.5-0.4,1.3-0.8,2.3-1.1
		c1.7-0.6,4,0.4,6.8,3.1l14.1,13.4c3.8,3.6,6.2,8.5,7.2,14.8c0.5,3,0.2,6.2-0.9,9.6c-1.1,3.4-2.9,6.5-5.6,9.3
		c-4.7,4.9-10.1,7.4-16.4,7.5C749.8,306.1,748,311,745.8,317.4z M736.4,277l8.4,7.9c1.3,1.2,3,1.9,5.2,2.1c2.2,0.2,4.2-0.6,6-2.5
		c1.8-1.9,2.6-4,2.2-6.1c-0.3-2.2-1.2-3.9-2.5-5.2l-8.2-7.8L736.4,277z"/>
</g>
</svg>
